<?xml version="1.0" encoding="UTF-8" standalone="no"?>
<!-- Created with Inkscape (http://www.inkscape.org/) -->

<svg
   xmlns:dc="http://purl.org/dc/elements/1.1/"
   xmlns:cc="http://creativecommons.org/ns#"
   xmlns:rdf="http://www.w3.org/1999/02/22-rdf-syntax-ns#"
   xmlns:svg="http://www.w3.org/2000/svg"
   xmlns="http://www.w3.org/2000/svg"
   xmlns:sodipodi="http://sodipodi.sourceforge.net/DTD/sodipodi-0.dtd"
   xmlns:inkscape="http://www.inkscape.org/namespaces/inkscape"
   width="32"
   height="32"
   viewBox="0 0 32 32"
   id="svg2"
   version="1.1"
   inkscape:version="0.91 r13725"
   sodipodi:docname="logo.svg">
  <defs
     id="defs4" />
  <sodipodi:namedview
     id="base"
     pagecolor="#ffffff"
     bordercolor="#666666"
     borderopacity="1.0"
     inkscape:pageopacity="0.0"
     inkscape:pageshadow="2"
     inkscape:zoom="16"
     inkscape:cx="19.697799"
     inkscape:cy="12.770778"
     inkscape:document-units="px"
     inkscape:current-layer="layer1"
     showgrid="false"
     units="px"
     inkscape:window-width="1920"
     inkscape:window-height="1053"
     inkscape:window-x="0"
     inkscape:window-y="27"
     inkscape:window-maximized="1" />
  <metadata
     id="metadata7">
    <rdf:RDF>
      <cc:Work
         rdf:about="">
        <dc:format>image/svg+xml</dc:format>
        <dc:type
           rdf:resource="http://purl.org/dc/dcmitype/StillImage" />
        <dc:title></dc:title>
      </cc:Work>
    </rdf:RDF>
  </metadata>
  <g
     inkscape:label="Layer 1"
     inkscape:groupmode="layer"
     id="layer1"
     transform="translate(0,-1020.3622)">
    <path
       style="fill:#000000"
       d="m 15.895834,1051.5316 c -0.197587,-0.2062 -0.260543,-0.3909 -0.360703,-1.0584 -0.158471,-1.0559 -0.113174,-3.7693 0.112744,-6.7543 0.07609,-1.0054 0.27654,-3.2058 0.306658,-3.3663 0.01885,-0.1004 0.0231,-0.1045 0.04685,-0.04 0.05131,0.1387 0.273976,2.3692 0.394217,3.9489 0.237345,3.118 0.248159,5.7314 0.02773,6.7005 -0.02808,0.1233 -0.0759,0.2824 -0.106274,0.3533 -0.06444,0.1504 -0.212455,0.3358 -0.267971,0.3358 -0.02121,0 -0.09017,-0.054 -0.15325,-0.1192 z m -5.483771,-4.9591 c -0.244338,-0.099 -0.397447,-0.455 -0.4781987,-1.113 -0.1224449,-0.9979 0.06756,-3.207 0.4762367,-5.537 0.08807,-0.5021 0.110632,-0.5914 0.141261,-0.5581 0.03959,0.043 0.364671,2.012 0.479124,2.9022 0.132898,1.0335 0.161607,1.4457 0.16231,2.3302 7.25e-4,0.8879 -0.02661,1.1596 -0.150854,1.5002 -0.137586,0.3774 -0.393809,0.5707 -0.629879,0.4755 z m 10.905547,-0.013 c -0.156516,-0.054 -0.186474,-0.082 -0.290869,-0.2739 -0.151887,-0.279 -0.174195,-0.4312 -0.196161,-1.338 -0.03401,-1.4041 0.03665,-2.2621 0.337774,-4.1017 0.06896,-0.4213 0.154732,-0.9078 0.19058,-1.0808 0.03585,-0.1733 0.06517,-0.3233 0.06517,-0.3337 0,-0.013 0.01368,0 0.0304,0.013 0.03935,0.039 0.192033,0.907 0.333995,1.8977 0.360094,2.513 0.392607,4.1908 0.09411,4.8559 -0.141779,0.3159 -0.337013,0.4414 -0.565005,0.3629 z m 3.572742,-6.6975 c -0.04716,-0.047 -0.12803,-0.2415 -0.2225,-0.5346 -0.294572,-0.9142 -0.686891,-1.5151 -1.280607,-1.9618 -0.210525,-0.1583 -0.768362,-0.43 -0.882975,-0.43 -0.08796,0 -0.09063,0 -0.09116,0.1676 -0.0013,0.4269 -0.165229,0.8516 -0.433833,1.1245 -0.184393,0.1873 -0.377209,0.2719 -0.61959,0.2719 -0.196648,0 -0.505064,-0.154 -0.652027,-0.3258 -0.139945,-0.1634 -0.285549,-0.5105 -0.372342,-0.8875 -0.03692,-0.1603 -0.08408,-0.2981 -0.104774,-0.306 -0.05498,-0.021 -3.139857,0.5204 -3.185466,0.5592 -0.01206,0.013 -0.04499,0.155 -0.07328,0.3218 -0.111485,0.6572 -0.192979,0.8832 -0.395067,1.096 -0.337304,0.3548 -0.747433,0.3566 -1.10817,0 -0.280549,-0.2739 -0.407807,-0.5959 -0.538706,-1.3633 -0.01246,-0.074 -0.04567,-0.1326 -0.08589,-0.1544 -0.121881,-0.066 -2.457103,-0.491 -3.051597,-0.5564 -0.189087,-0.02 -0.200524,-0.019 -0.226966,0.054 -0.01531,0.042 -0.03763,0.1681 -0.04958,0.2823 -0.06009,0.5736 -0.305901,1.0158 -0.66387,1.1943 -0.388488,0.1934 -0.792657,0.042 -1.0938356,-0.4128 -0.1415723,-0.2133 -0.1988597,-0.3654 -0.27422,-0.7282 -0.068188,-0.3284 -0.099798,-0.3795 -0.2173183,-0.3523 -0.1712357,0.04 -0.5268847,0.2034 -0.7313102,0.3366 -0.4905581,0.3196 -0.9807928,1.1705 -1.3156154,2.2833 -0.05393,0.1792 -0.1127941,0.335 -0.130811,0.3462 -0.061227,0.037 -0.1732355,-0.015 -0.2276637,-0.1072 -0.2943694,-0.4982 -0.7114055,-2.4482 -0.8547896,-3.9966 -0.066882,-0.7223 -0.063474,-0.7049 -0.1545045,-0.7902 -0.3172239,-0.2974 -3.6611612,-2.3759 -4.9050216,-3.0488 -0.52530834,-0.2841 -0.70459037,-0.4142 -0.78324227,-0.5684 -0.07388143,-0.1448 -0.07883811,-0.2482 -0.018755,-0.3921 0.0599625,-0.1435 0.19467053,-0.2047 1.96711167,-0.894 0.565395,-0.2199 0.8122153,-0.3544 0.9399625,-0.5124 0.091877,-0.1138 0.097242,-0.1354 0.093566,-0.3808 -0.00608,-0.4057 -0.1240913,-0.6934 -0.6647146,-1.6206 -0.167721,-0.2876 -0.3049524,-0.5392 -0.3049598,-0.559 -2.53e-5,-0.072 0.1882333,-0.1166 0.4236185,-0.1005 0.4271029,0.03 0.7906897,0.1854 1.800935,0.7755 0.3449621,0.2015 0.6319533,0.3663 0.6377579,0.3663 0.0058,0 0.010503,-0.1616 0.010449,-0.3591 -1.596e-4,-0.5281 -0.1108945,-1.5581 -0.3217323,-2.9926 -0.2174887,-1.4796 -0.2074526,-2.0349 0.046448,-2.5696 0.1304841,-0.2747 0.3369643,-0.5072 0.5812647,-0.654 0.2036773,-0.1219 0.5570492,-0.2537 0.6868032,-0.2549 l 0.082936,0 0.019604,0.4709 c 0.03814,0.9159 0.234069,1.7349 0.5707675,2.386 0.1359273,0.2628 0.4240728,0.6835 0.6777432,0.9896 0.1989043,0.2399 0.6060396,0.6224 0.6625377,0.6224 0.014057,0 0.1226673,-0.062 0.2413537,-0.138 2.2944713,-1.4674 4.7512953,-2.257 7.3022283,-2.3465 1.732196,-0.06 3.208445,0.1417 4.69237,0.644 0.926781,0.3136 2.006002,0.8478 3.285043,1.6264 l 0.476005,0.2898 0.322158,-0.3332 c 0.519934,-0.5374 0.779736,-0.9183 1.042711,-1.5282 0.276591,-0.6416 0.390386,-1.225 0.431583,-2.2123 0.02587,-0.6195 -0.0036,-0.5847 0.38665,-0.4536 0.899583,0.3019 1.299631,1.1267 1.192194,2.4582 -0.02043,0.2531 -0.130682,1.0601 -0.24502,1.7934 -0.157855,1.0124 -0.212305,1.4492 -0.226278,1.8153 -0.01904,0.4991 -6.04e-4,0.715 0.06105,0.715 0.01971,0 0.299983,-0.1522 0.622905,-0.3381 0.982468,-0.5656 1.556297,-0.8006 1.887747,-0.773 0.166136,0.013 0.163693,0.091 -0.01403,0.4454 -0.332857,0.6628 -0.580094,1.4368 -0.610619,1.9116 l -0.01752,0.2722 0.682347,0.3156 c 1.336267,0.6179 2.154775,1.0274 2.209218,1.1051 0.0657,0.094 0.06923,0.3119 0.0066,0.4015 -0.09569,0.1366 -1.515293,1.0276 -4.087054,2.565 -0.771019,0.461 -1.302611,0.816 -1.479456,0.9881 -0.204734,0.1994 -0.252325,0.3356 -0.290898,0.833 -0.08755,1.1291 -0.154141,1.6982 -0.276155,2.3605 -0.142537,0.7736 -0.381575,1.5308 -0.54446,1.7242 -0.09643,0.1152 -0.119496,0.1166 -0.215243,0.022 z m -7.44039,-4.939 c 0.844808,-0.063 1.595734,-0.2791 3.208048,-0.9239 0.92944,-0.3718 2.176844,-0.8311 2.555857,-0.9412 0.488497,-0.142 0.843916,-0.2019 1.338491,-0.2255 0.627899,-0.03 0.725381,-0.088 0.845399,-0.5089 0.03001,-0.1059 0.0742,-0.2291 0.0982,-0.2755 0.05112,-0.099 0.06938,-0.1018 0.987612,-0.1717 0.828581,-0.063 1.076918,-0.134 1.182706,-0.3385 0.06223,-0.1206 0.05838,-0.2039 -0.02024,-0.4366 -0.274704,-0.8135 -1.491325,-1.7804 -3.460775,-2.7505 -0.841829,-0.4146 -1.14206,-0.5473 -1.255598,-0.5548 -0.09494,0 -0.06129,-0.064 -0.54784,0.9413 -0.846171,1.7487 -2.162198,3.1507 -3.643787,3.8821 -0.821729,0.4055 -1.497546,0.5882 -2.373391,0.6415 -1.064537,0.064 -2.002864,-0.1273 -3.000563,-0.6134 -0.709309,-0.3458 -1.17836,-0.6785 -1.783701,-1.2654 -0.904908,-0.8775 -1.6620501,-2.0299 -2.2367384,-3.4045 l -0.1485651,-0.3553 -0.1339994,0.031 c -0.3614554,0.082 -1.0065444,0.3424 -1.6949208,0.6865 -1.4265011,0.713 -2.3763438,1.5075 -2.7874478,2.3318 -0.129127,0.2588 -0.1488199,0.3259 -0.1618758,0.5515 -0.023159,0.3999 -5.808e-4,0.4123 1.0627902,0.5746 0.3511299,0.054 0.7131352,0.1192 0.8044571,0.1448 0.1944469,0.056 0.2479596,0.1286 0.4595191,0.6289 l 0.1315961,0.3113 0.1321573,1e-4 c 0.3345398,4e-4 1.2844415,0.1059 1.6097129,0.1785 0.492418,0.1098 0.8494431,0.2315 2.2412276,0.7626 0.658368,0.2513 1.34457,0.5082 1.524895,0.571 0.688763,0.2395 1.630681,0.4506 2.417333,0.5419 0.232815,0.027 2.245171,0.017 2.649433,-0.013 z m -2.186581,-4.1987 c 0,-0.028 -0.14584,-0.4624 -0.324091,-0.9656 -0.503405,-1.4214 -0.738656,-2.2234 -0.825448,-2.8143 -0.02192,-0.1493 -0.04993,-0.3144 -0.06225,-0.3671 l -0.0224,-0.096 -0.316593,0.013 c -0.347707,0.013 -1.643079,0.1874 -2.257145,0.3097 -0.425169,0.084 -0.814036,0.2047 -1.054127,0.3255 l -0.153721,0.078 0.0214,0.1819 c 0.03306,0.2811 0.163443,0.6393 0.317811,0.8732 0.566917,0.8589 1.853416,1.6757 3.527406,2.2396 0.794143,0.2676 1.149153,0.3376 1.149153,0.2267 z m 1.83545,-0.1568 c 1.829239,-0.2428 3.342268,-1.0426 4.145141,-2.191 0.250192,-0.358 0.530118,-0.9867 0.488062,-1.0963 -0.06653,-0.1734 -0.909467,-0.4195 -2.239136,-0.6541 -0.534547,-0.094 -1.478074,-0.2244 -1.62671,-0.2244 -0.09479,0 -0.105805,0.032 -0.257063,0.7661 -0.214028,1.0376 -0.37203,1.5658 -0.840331,2.809 -0.122337,0.3249 -0.215788,0.6014 -0.207663,0.6145 0.02113,0.035 0.138932,0.03 0.5377,-0.024 z m -1.080667,-0.5841 c 0.172146,-0.256 0.370248,-1.7012 0.415497,-3.0311 l 0.02091,-0.6145 -0.615671,0 -0.615673,0 0.02185,0.2954 c 0.140026,1.8926 0.250357,2.7428 0.417481,3.2163 0.09703,0.2751 0.227657,0.3242 0.355613,0.134 z"
       id="path4147"
       inkscape:connector-curvature="0" />
  </g>
</svg>
